<svg version="1.2" xmlns="http://www.w3.org/2000/svg" viewBox="0 0 185 176" width="185" height="176">
    <title>logo</title>
    <style>
        .s0 { fill: #ffffff }
    </style>
    <g id="Layer_2">
        <g id="Layer_2-2">
            <path class="s0"
                  d="m121 58l-28.6-58-28.6 58-63.8 9.3 46.2 45-10.9 63.6 57.1-30.1 57.2 30.1-10.9-63.6 46.2-45zm-59.5 9q2.4-2.4 5.1-4.5 2.8-2 5.9-3.6 3-1.6 6.3-2.7 3.3-1.1 6.7-1.7v39.7l-33.9 19.6q-0.7-1.9-1.3-3.9-0.5-2-0.9-4-0.3-2-0.5-4-0.2-2.1-0.2-4.1-0.1-4.3 0.7-8.5 0.8-4.3 2.5-8.2 1.6-4 4-7.6 2.5-3.5 5.6-6.5zm38 27.3v-39.8q3.4 0.5 6.6 1.6 3.3 1.1 6.4 2.7 3 1.6 5.8 3.6 2.8 2.1 5.2 4.6c8.5 8.4 12.7 18.7 12.7 30.8q0.1 2.1-0.1 4.1-0.2 2-0.5 4-0.4 2.1-0.9 4-0.5 2-1.2 3.9zm26.7 31.6q-0.3 0.4-0.6 0.7-0.4 0.4-0.7 0.8-0.4 0.3-0.7 0.7-0.4 0.3-0.7 0.7-2.4 2.5-5.2 4.5-2.7 2.1-5.8 3.7-3.1 1.6-6.3 2.7-3.3 1-6.7 1.5v-30.7zm-40.8 15.3c-9-1.3-17-5.5-24-12.4-0.9-0.9-1.8-2-2.7-2.9l26.7-15.4z"/>
        </g>
    </g>
</svg>